HIERARCHY
ROOT hip
{
  OFFSET 0 0 0
  CHANNELS 6 Xposition Yposition Zposition Zrotation Yrotation Xrotation
  JOINT abdomen
  {
    OFFSET 0 20.6881 -0.73152
    CHANNELS 3 Zrotation Xrotation Yrotation
    JOINT chest
    {
      OFFSET 0 11.7043 -0.48768
      CHANNELS 3 Zrotation Xrotation Yrotation
      JOINT neck
      {
        OFFSET 0 22.1894 -2.19456
        CHANNELS 3 Zrotation Xrotation Yrotation
        JOINT head
        {
          OFFSET -0.24384 7.07133 1.2192
          CHANNELS 3 Zrotation Xrotation Yrotation
          JOINT leftEye
          {
            OFFSET 4.14528 8.04674 8.04672
            CHANNELS 3 Zrotation Xrotation Yrotation
            End Site
            {
              OFFSET 1 0 0
            }
          }
          JOINT rightEye
          {
            OFFSET -3.6576 8.04674 8.04672
            CHANNELS 3 Zrotation Xrotation Yrotation
            End Site
            {
              OFFSET 1 0 0
            }
          }
        }
      }
      JOINT rCollar
      {
        OFFSET -2.68224 19.2634 -4.8768
        CHANNELS 3 Zrotation Xrotation Yrotation
        JOINT rShldr
        {
          OFFSET -8.77824 -1.95073 1.46304
          CHANNELS 3 Zrotation Xrotation Yrotation
          JOINT rForeArm
          {
            OFFSET -28.1742 -1.7115 0.48768
            CHANNELS 3 Zrotation Xrotation Yrotation
            JOINT rHand
            {
              OFFSET -22.5879 0.773209 7.07136
              CHANNELS 3 Zrotation Xrotation Yrotation
              JOINT rThumb1
              {
                OFFSET -1.2192 -0.487915 3.41376
                CHANNELS 3 Zrotation Xrotation Yrotation
                JOINT rThumb2
                {
                  OFFSET -3.37035 -0.52449 3.41376
                  CHANNELS 3 Zrotation Xrotation Yrotation
                  End Site
                  {
                    OFFSET -1.78271 -1.18214 1.43049
                  }
                }
              }
              JOINT rIndex1
              {
                OFFSET -7.75947 0.938293 5.60832
                CHANNELS 3 Zrotation Xrotation Yrotation
                JOINT rIndex2
                {
                  OFFSET -2.54057 -0.884171 1.56538
                  CHANNELS 3 Zrotation Xrotation Yrotation
                  End Site
                  {
                    OFFSET -1.62519 -0.234802 1.16502
                  }
                }
              }
              JOINT rMid1
              {
                OFFSET -8.24714 1.18213 3.41376
                CHANNELS 3 Zrotation Xrotation Yrotation
                JOINT rMid2
                {
                  OFFSET -3.10165 -0.590103 1.0647
                  CHANNELS 3 Zrotation Xrotation Yrotation
                  End Site
                  {
                    OFFSET -2.48547 -0.328903 0.83742
                  }
                }
              }
              JOINT rRing1
              {
                OFFSET -8.82822 0.546677 1.51678
                CHANNELS 3 Zrotation Xrotation Yrotation
                JOINT rRing2
                {
                  OFFSET -2.60934 -0.819778 -0.0198488
                  CHANNELS 3 Zrotation Xrotation Yrotation
                  End Site
                  {
                    OFFSET -2.33842 -0.294052 0.168128
                  }
                }
              }
              JOINT rPinky1
              {
                OFFSET -8.27202 -0.0477905 -0.4584
                CHANNELS 3 Zrotation Xrotation Yrotation
                JOINT rPinky2
                {
                  OFFSET -1.82734 -0.647385 -0.700984
                  CHANNELS 3 Zrotation Xrotation Yrotation
                  End Site
                  {
                    OFFSET -1.69225 -0.51767 -0.607171
                  }
                }
              }
            }
          }
        }
      }
      JOINT lCollar
      {
        OFFSET 2.68224 19.2634 -4.8768
        CHANNELS 3 Zrotation Xrotation Yrotation
        JOINT lShldr
        {
          OFFSET 8.77824 -1.95073 1.46304
          CHANNELS 3 Zrotation Xrotation Yrotation
          JOINT lForeArm
          {
            OFFSET 28.1742 -1.7115 0.48768
            CHANNELS 3 Zrotation Xrotation Yrotation
            JOINT lHand
            {
              OFFSET 22.5879 0.773209 7.07136
              CHANNELS 3 Zrotation Xrotation Yrotation
              JOINT lThumb1
              {
                OFFSET 1.2192 -0.487915 3.41376
                CHANNELS 3 Zrotation Xrotation Yrotation
                JOINT lThumb2
                {
                  OFFSET 3.37035 -0.52449 3.41376
                  CHANNELS 3 Zrotation Xrotation Yrotation
                  End Site
                  {
                    OFFSET 1.78271 -1.18214 1.43049
                  }
                }
              }
              JOINT lIndex1
              {
                OFFSET 7.75947 0.938293 5.60832
                CHANNELS 3 Zrotation Xrotation Yrotation
                JOINT lIndex2
                {
                  OFFSET 2.54057 -0.884171 1.56538
                  CHANNELS 3 Zrotation Xrotation Yrotation
                  End Site
                  {
                    OFFSET 1.62519 -0.234802 1.16502
                  }
                }
              }
              JOINT lMid1
              {
                OFFSET 8.24714 1.18213 3.41376
                CHANNELS 3 Zrotation Xrotation Yrotation
                JOINT lMid2
                {
                  OFFSET 3.10165 -0.590103 1.0647
                  CHANNELS 3 Zrotation Xrotation Yrotation
                  End Site
                  {
                    OFFSET 2.48547 -0.328903 0.83742
                  }
                }
              }
              JOINT lRing1
              {
                OFFSET 8.82822 0.546677 1.51678
                CHANNELS 3 Zrotation Xrotation Yrotation
                JOINT lRing2
                {
                  OFFSET 2.60934 -0.819778 -0.0198488
                  CHANNELS 3 Zrotation Xrotation Yrotation
                  End Site
                  {
                    OFFSET 2.33842 -0.294052 0.168128
                  }
                }
              }
              JOINT lPinky1
              {
                OFFSET 8.27202 -0.0477905 -0.4584
                CHANNELS 3 Zrotation Xrotation Yrotation
                JOINT lPinky2
                {
                  OFFSET 1.82734 -0.647385 -0.700984
                  CHANNELS 3 Zrotation Xrotation Yrotation
                  End Site
                  {
                    OFFSET 1.69225 -0.51767 -0.607171
                  }
                }
              }
            }
          }
        }
      }
    }
  }
  JOINT rButtock
  {
    OFFSET -8.77824 4.35084 1.2192
    CHANNELS 3 Zrotation Xrotation Yrotation
    JOINT rThigh
    {
      OFFSET 0 -1.70687 -2.19456
      CHANNELS 3 Zrotation Xrotation Yrotation
      JOINT rShin
      {
        OFFSET 0 -36.8199 0.73152
        CHANNELS 3 Zrotation Xrotation Yrotation
        JOINT rFoot
        {
          OFFSET 0.73152 -45.1104 -5.12064
          CHANNELS 3 Zrotation Xrotation Yrotation
          End Site
          {
            OFFSET -1.1221 -3.69964 12.103
          }
        }
      }
    }
  }
  JOINT lButtock
  {
    OFFSET 8.77824 4.35084 1.2192
    CHANNELS 3 Zrotation Xrotation Yrotation
    JOINT lThigh
    {
      OFFSET 0 -1.70687 -2.19456
      CHANNELS 3 Zrotation Xrotation Yrotation
      JOINT lShin
      {
        OFFSET 0 -36.8199 0.73152
        CHANNELS 3 Zrotation Xrotation Yrotation
        JOINT lFoot
        {
          OFFSET -0.73152 -45.1104 -5.12064
          CHANNELS 3 Zrotation Xrotation Yrotation
          End Site
          {
            OFFSET 1.1221 -3.69964 12.103
          }
        }
      }
    }
  }
}
MOTION
Frames:	7
Frame Time:	0.00833333
-22.900002 84.695404 -127.922005 -87.4658 40.8465 -73.2208 12.005901 33.0504 -9.76591 9.419241 -12.4301 -0.2942339 -8.82903 16.1433 -11.7241 30.5726 -18.8479 -18.190199 0.0 0.0 0.0 0.0 0.0 0.0 -6.21337e-15 5.63548e-14 3.34331e-14 61.5915 -6.521 -13.322499 -22.393997 -16.358898 44.878296 0.010122601 -2.2153502 -0.31126 1.10053e-09 -5.7024e-08 -6.58748e-10 1.8996e-09 -9.82966e-08 -1.1268401e-09 1.10053e-09 -5.7024e-08 -6.58756e-10 7.730911 5.47488 0.41731405 1.10053e-09 -5.7024e-08 -6.58749e-10 2.90554 0.965183 0.102902 1.10054e-09 -5.7024e-08 -6.58751e-10 10.2786 0.73180103 0.025912303 1.10052e-09 -5.7024e-08 -6.58744e-10 2.2216702 -0.733487 -0.20892 -6.08684e-15 5.6357002e-14 3.33337e-14 -20.761202 13.303799 -78.6802 24.732498 -20.5438 -51.938698 0.28476995 -15.049401 2.16526 1.11984e-09 1.00497e-09 -1.27281e-09 1.95463e-09 1.7187e-09 -2.1908602e-09 1.11984e-09 1.00497e-09 -1.27281e-09 -7.730911 5.47488 -0.41731405 1.11984e-09 1.00498e-09 -1.27281e-09 -2.90554 0.965183 -0.102902 1.11984e-09 1.00497e-09 -1.27281e-09 -10.2786 0.73180103 -0.025912303 1.11985e-09 1.00498e-09 -1.27281e-09 -2.2216702 -0.733487 0.20892 -2.03217e-16 8e-44 -3.88251e-19 -132.141 -11.8692 -110.978004 -177.166 44.816204 178.634 2.97054 -2.0277 3.9377198 2.03217e-16 8e-44 3.88251e-19 53.3091 -26.824102 6.92893 -0.050605908 25.3298 -2.03543 -1.15884 -0.9238511 31.066002
-22.6745 82.760605 -128.882 -87.64749 44.378407 -72.313095 7.54105 31.6536 -8.286829 10.219602 -11.5910015 -0.2520111 -9.04105 16.4839 -12.2056 30.4006 -19.1703 -19.1405 0.0 0.0 0.0 0.0 0.0 0.0 -4.44983e-14 4.38898e-13 3.75355e-13 61.0735 -7.2608895 -13.3593 -22.837997 -17.069498 46.118996 -0.0602694 -6.9880805 -0.98705816 4.05664e-09 -1.2215399e-07 -3.47352e-10 7.01277e-09 -2.1073599e-07 -5.68596e-10 4.05664e-09 -1.2215399e-07 -3.47364e-10 7.730911 5.47488 0.41731405 4.05664e-09 -1.2215399e-07 -3.4735498e-10 2.90554 0.965183 0.102902 4.05665e-09 -1.2215399e-07 -3.47357e-10 10.2786 0.73180103 0.025912303 4.05663e-09 -1.2215399e-07 -3.47348e-10 2.2216702 -0.733487 -0.20892 -4.45107e-14 4.38935e-13 3.7520602e-13 -21.7557 16.5944 -76.9401 25.495401 -22.2026 -54.7653 0.36128703 -16.8478 2.43923 -3.0179999e-09 -3.5748599e-10 -1.91558e-09 -5.1753797e-09 -5.85403e-10 -3.3554601e-09 -3.0179999e-09 -3.57492e-10 -1.91558e-09 -7.730911 5.47488 -0.41731405 -3.0179999e-09 -3.5748599e-10 -1.91558e-09 -2.90554 0.965183 -0.102902 -3.0179999e-09 -3.5749e-10 -1.91557e-09 -10.2786 0.73180103 -0.025912303 -3.01799e-09 -3.5748599e-10 -1.91558e-09 -2.2216702 -0.733487 0.20892 -2.03217e-16 8e-44 -3.88251e-19 -133.291 1.7221603 -114.749 -177.397 34.7677 176.804 2.25726 2.6303499 6.7454505 2.03217e-16 8e-44 3.88251e-19 50.009598 -31.054901 10.0744 -0.03387901 31.362497 -2.05668 0.541706 -3.35184 28.020998
-20.4079 81.5522 -131.505 -97.37159 45.0598 -91.3834 11.4928 38.558002 -12.3753 9.266701 -14.0086 -0.6161871 -9.33233 17.0068 -12.580801 30.308899 -19.6851 -19.8403 0.0 0.0 0.0 0.0 0.0 0.0 -2.63307e-13 4.5810903e-13 3.9291097e-14 60.514 -7.796099 -13.541899 -23.4129 -18.0433 47.781296 -0.137983 -10.5479 -1.49875 2.4912301e-09 -6.17612e-08 2.15449e-10 4.30105e-09 -1.06622004e-07 3.8928902e-10 2.4912301e-09 -6.17612e-08 2.15442e-10 7.730911 5.47488 0.41731405 2.4912301e-09 -6.17612e-08 2.1544601e-10 2.90554 0.965183 0.102902 2.4912301e-09 -6.17612e-08 2.15447e-10 10.2786 0.73180103 0.025912303 2.49122e-09 -6.1761305e-08 2.1545599e-10 2.2216702 -0.733487 -0.20892 -2.6343101e-13 4.5808897e-13 3.90301e-14 -22.970198 19.974098 -74.401695 26.129501 -23.769402 -57.282505 0.42629796 -18.255 2.65677 -1.7326901e-09 5.94638e-10 -1.86584e-09 -2.96175e-09 1.03679e-09 -3.24537e-09 -1.7326901e-09 5.94634e-10 -1.8658302e-09 -7.730911 5.47488 -0.41731405 -1.7326901e-09 5.94639e-10 -1.86584e-09 -2.90554 0.965183 -0.102902 -1.7326901e-09 5.94633e-10 -1.8658302e-09 -10.2786 0.73180103 -0.025912303 -1.7326799e-09 5.94638e-10 -1.8658302e-09 -2.2216702 -0.733487 0.20892 -2.03217e-16 8e-44 -3.88251e-19 -126.815994 7.2465715 -108.788 -177.339 30.243702 175.016 1.4876801 3.4185703 9.87813 2.03217e-16 8e-44 3.88251e-19 45.643997 -32.099197 6.881931 0.06604783 35.540306 -1.82748 1.4711001 -5.0263805 24.023901
-20.0712 80.2376 -132.076 -99.2352 47.4066 -93.5467 16.906101 45.2572 -17.2919 8.18989 -16.537098 -0.955761 -9.5114 17.5243 -12.9753 30.163095 -20.260298 -20.569696 0.0 0.0 0.0 0.0 0.0 0.0 -3.65647e-13 3.26043e-13 -2.82871e-13 59.9281 -8.187871 -13.7471 -24.0168 -19.1286 49.6627 -0.220468 -13.255398 -1.8972397 5.17787e-10 1.67973e-08 1.01561e-10 8.91408e-10 2.8937501e-08 1.7727e-10 5.1779e-10 1.67973e-08 1.01561e-10 7.730911 5.47488 0.41731405 5.17788e-10 1.67973e-08 1.01558e-10 2.90554 0.965183 0.102902 5.17789e-10 1.67973e-08 1.01564e-10 10.2786 0.73180103 0.025912303 5.17786e-10 1.67973e-08 1.01571e-10 2.2216702 -0.733487 -0.20892 -3.65855e-13 3.2597e-13 -2.83218e-13 -24.4136 23.3659 -71.167496 26.637102 -25.193802 -59.5927 0.47883704 -19.2821 2.8182201 9.97104e-11 1.15851e-09 -1.2247899e-09 1.88143e-10 1.98677e-09 -2.1098598e-09 9.971e-11 1.15851e-09 -1.22478e-09 -7.730911 5.47488 -0.41731405 9.97082e-11 1.15851e-09 -1.2247899e-09 -2.90554 0.965183 -0.102902 9.9708304e-11 1.15851e-09 -1.22478e-09 -10.2786 0.73180103 -0.025912303 9.97209e-11 1.15851e-09 -1.2247899e-09 -2.2216702 -0.733487 0.20892 -2.03217e-16 8e-44 -3.88251e-19 -119.093 6.173359 -104.718 -177.124 29.355398 173.863 1.27521 2.17728 12.021999 2.03217e-16 8e-44 3.88251e-19 41.5724 -32.338997 3.96439 0.14609799 38.9798 -1.58689 2.0345995 -6.61316 20.1303
-19.8178 78.7359 -131.84601 -99.92729 50.826004 -94.1847 12.736999 45.065403 -14.929104 8.47626 -16.2888 -0.8007119 -9.34927 17.819302 -13.518699 29.734798 -20.7076 -21.638899 0.0 0.0 0.0 0.0 0.0 0.0 1.6769301e-13 -1.75316e-14 1.31356e-13 59.3527 -8.697309 -13.8131 -24.5671 -20.196701 51.4579 -0.26986304 -14.537301 -2.08926 1.3813101e-09 3.17112e-08 -2.8506801e-09 2.42233e-09 5.50907e-08 -4.9040803e-09 1.3813101e-09 3.17112e-08 -2.8506801e-09 7.730911 5.47488 0.41731405 1.3813101e-09 3.17112e-08 -2.85069e-09 2.90554 0.965183 0.102902 1.3813101e-09 3.17111e-08 -2.8506801e-09 10.2786 0.73180103 0.025912303 1.3813101e-09 3.17111e-08 -2.8506801e-09 2.2216702 -0.733487 -0.20892 1.67466e-13 -1.75546e-14 1.3107099e-13 -26.061302 26.783197 -67.5927 27.0253 -26.419703 -61.5536 0.478003 -19.254 2.8140001 -1.54684e-09 -2.1292599e-09 1.0225301e-09 -2.68135e-09 -3.6502101e-09 1.73643e-09 -1.54684e-09 -2.1292599e-09 1.0225399e-09 -7.730911 5.47488 -0.41731405 -1.54684e-09 -2.1292499e-09 1.0225301e-09 -2.90554 0.965183 -0.102902 -1.54684e-09 -2.1292599e-09 1.0225399e-09 -10.2786 0.73180103 -0.025912303 -1.54683e-09 -2.1292599e-09 1.0225301e-09 -2.2216702 -0.733487 0.20892 -2.03217e-16 8e-44 -3.88251e-19 -114.323 -0.75043046 -107.342995 -177.203 31.297998 174.7 2.25575 -1.00517 11.6428995 2.03217e-16 8e-44 3.88251e-19 40.072 -33.891804 7.9828606 0.20705591 42.618202 -1.6395601 2.3729599 -8.69052 17.351
-19.654701 77.171104 -131.155 -99.63711 54.2028 -93.40901 6.3766704 42.0898 -10.619501 9.145539 -15.0852995 -0.50407505 -9.11442 18.108501 -14.0998 29.283298 -21.278797 -22.7578 0.0 0.0 0.0 0.0 0.0 0.0 6.20308e-13 -2.71956e-13 5.37613e-13 58.6769 -9.101881 -13.8227005 -25.091297 -21.2933 53.274498 -0.293988 -15.249599 -2.1958199 2.4626299e-09 2.6268001e-08 -4.93264e-09 4.31837e-09 4.6018897e-08 -8.4822e-09 2.46264e-09 2.6268001e-08 -4.93265e-09 7.730911 5.47488 0.41731405 2.4626299e-09 2.6268001e-08 -4.93265e-09 2.90554 0.965183 0.102902 2.46264e-09 2.6268001e-08 -4.93265e-09 10.2786 0.73180103 0.025912303 2.4626299e-09 2.6268001e-08 -4.93265e-09 2.2216702 -0.733487 -0.20892 6.201e-13 -2.7192e-13 5.37414e-13 -28.0135 30.056898 -63.629894 27.315899 -27.4565 -63.199898 0.470354 -19.118599 2.7924302 -3.05259e-09 -4.74757e-09 2.60634e-09 -5.29813e-09 -8.13711e-09 4.4408e-09 -3.05259e-09 -4.74758e-09 2.60634e-09 -7.730911 5.47488 -0.41731405 -3.05259e-09 -4.74757e-09 2.60634e-09 -2.90554 0.965183 -0.102902 -3.05259e-09 -4.74757e-09 2.60634e-09 -10.2786 0.73180103 -0.025912303 -3.0525802e-09 -4.74757e-09 2.60634e-09 -2.2216702 -0.733487 0.20892 -2.03217e-16 8e-44 -3.88251e-19 -111.46199 -11.969206 -108.126 -177.34 35.305504 176.183 3.4230301 -4.8427405 10.419299 2.03217e-16 8e-44 3.88251e-19 40.3692 -35.886497 14.4118 0.2880421 46.1826 -1.8045299 2.4342499 -10.802401 15.004501
-19.7662 75.5104 -130.009 -98.667 56.767002 -90.1001 2.3581402 37.7995 -7.6013203 9.72191 -13.6771 -0.26427197 -9.007901 18.574303 -14.667802 29.083399 -22.277699 -23.7401 0.0 0.0 0.0 0.0 0.0 0.0 1.86327e-13 1.70826e-14 2.2452401e-13 57.734695 -9.266319 -13.8714 -25.5921 -22.430498 55.1318 -0.328025 -16.067902 -2.32012 1.80994e-09 1.55594e-08 -1.6356501e-09 3.14819e-09 2.71505e-08 -2.79806e-09 1.8099499e-09 1.55594e-08 -1.6356599e-09 7.730911 5.47488 0.41731405 1.80994e-09 1.55594e-08 -1.6356599e-09 2.90554 0.965183 0.102902 1.8099499e-09 1.55594e-08 -1.6356599e-09 10.2786 0.73180103 0.025912303 1.80994e-09 1.55594e-08 -1.6356501e-09 2.2216702 -0.733487 -0.20892 1.86177e-13 1.71074e-14 2.24329e-13 -30.3042 33.1063 -59.496597 27.5121 -28.2337 -64.4544 0.5128089 -19.937 2.9217598 -1.0767e-09 -1.65257e-09 5.6025e-10 -1.86108e-09 -2.83616e-09 9.46549e-10 -1.0767099e-09 -1.6525801e-09 5.60254e-10 -7.730911 5.47488 -0.41731405 -1.0767e-09 -1.65257e-09 5.60254e-10 -2.90554 0.965183 -0.102902 -1.0767e-09 -1.65257e-09 5.6025e-10 -10.2786 0.73180103 -0.025912303 -1.0766901e-09 -1.65257e-09 5.60245e-10 -2.2216702 -0.733487 0.20892 -2.03217e-16 8e-44 -3.88251e-19 -110.07 -21.790798 -108.431 -177.371 40.403095 177.359 4.2108307 -7.9283013 9.589911 2.03217e-16 8e-44 3.88251e-19 42.634304 -38.735107 21.198406 0.37354487 49.7754 -1.9662701 2.1570597 -12.671598 12.594298
